#!OML:ASF G:\JayActor3\Patient Classification 1\Patient 1\Session 5\male.ASF
:FULLY-SPECIFIED
:DEGREES
767
root -20.4042 17.821 -5.83041 1054.44 -94.1019 -1039.1
lowerback 19.1863 -0.735759 3.38387
upperback 7.25926 -0.902283 -1.44503
thorax -2.97038 -0.585066 -3.25647
lowerneck 6.64877 0.0665449 1.81067
upperneck -17.1594 0.507233 2.55677
head -6.30463 -0.190916 0.487742
rclavicle -1.86858e-014 -3.73715e-014
rhumerus -30.9307 -3.54567 -89.4244
rradius 26.0431
rwrist 6.87685
rhand -23.0386 -8.46693
rfingers 7.12502
rthumb 3.40585 -38.4195
lclavicle -1.86858e-014 -3.73715e-014
lhumerus -33.5386 6.12518 82.7857
lradius 26.6236
lwrist 20.0138
lhand -20.7606 15.404
lfingers 7.12502
lthumb 5.60546 45.3099
rfemur -22.3491 7.01727 20.436
rtibia 55.2681
rfoot 10.918 -7.181
rtoes -6.04202
lfemur -40.0383 13.7627 -25.5875
ltibia 38.3831
lfoot 14.1803 -10.3722
ltoes -25.5604
768
root -20.5633 17.8753 -5.82119 1054.74 -94.1425 -1039.25
lowerback 19.0332 -0.73864 3.4341
upperback 7.26155 -0.897549 -1.40327
thorax -2.88825 -0.580012 -3.24246
lowerneck 6.5634 0.0967393 1.80674
upperneck -17.1857 0.542616 2.55197
head -6.29815 -0.17435 0.484413
rclavicle -2.50469e-014 -1.94809e-014
rhumerus -30.9797 -3.54814 -89.2408
rradius 25.9154
rwrist 7.15227
rhand -22.9527 -8.48527
rfingers 7.12502
rthumb 3.48875 -38.4365
lclavicle -2.50469e-014 -1.94809e-014
lhumerus -33.5138 6.0483 82.9247
lradius 26.6074
lwrist 19.9665
lhand -20.6453 15.5232
lfingers 7.12502
lthumb 5.71685 45.4261
rfemur -23.7941 7.38354 20.2456
rtibia 55.235
rfoot 10.1755 -7.71173
rtoes -5.68261
lfemur -39.3363 13.7809 -25.4504
ltibia 37.8441
lfoot 14.8497 -10.1278
ltoes -25.3064
769
root -20.7233 17.9263 -5.81172 1055.29 -94.2016 -1039.7
lowerback 18.9044 -0.736935 3.4818
upperback 7.26835 -0.888433 -1.37411
thorax -2.81353 -0.573155 -3.24127
lowerneck 6.46888 0.132132 1.79883
upperneck -17.1967 0.583359 2.54131
head -6.28526 -0.153948 0.479426
rclavicle 5.1684e-015 1.07344e-014
rhumerus -31.0312 -3.57718 -89.0535
rradius 25.771
rwrist 7.40467
rhand -22.8762 -8.50552
rfingers 7.12502
rthumb 3.56266 -38.4555
lclavicle 5.1684e-015 1.07344e-014
lhumerus -33.5105 5.97571 83.0369
lradius 26.6051
lwrist 19.9098
lhand -20.5258 15.6212
lfingers 7.12502
lthumb 5.83216 45.521
rfemur -25.187 7.74114 20.0379
rtibia 55.0815
rfoot 9.4827 -8.06629
rtoes -5.35258
lfemur -38.579 13.8071 -25.3146
ltibia 37.3043
lfoot 15.4422 -9.85283
ltoes -25.0946
770
root -20.884 17.974 -5.80179 1055.93 -94.2797 -1040.29
lowerback 18.8313 -0.73524 3.53166
upperback 7.26894 -0.878143 -1.35056
thorax -2.77412 -0.566642 -3.24719
lowerneck 6.38016 0.172616 1.78135
upperneck -17.1911 0.628986 2.52193
head -6.26806 -0.12922 0.472832
rclavicle -9.14409e-015 -2.34566e-014
rhumerus -31.1056 -3.62662 -88.8572
rradius 25.6283
rwrist 7.61163
rhand -22.8178 -8.52703
rfingers 7.12502
rthumb 3.61906 -38.4761
lclavicle -9.14409e-015 -2.34566e-014
lhumerus -33.5526 5.91855 83.1228
lradius 26.6296
lwrist 19.8637
lhand -20.4014 15.7023
lfingers 7.12502
lthumb 5.95228 45.5987
rfemur -26.5216 8.08316 19.829
rtibia 54.8196
rfoot 8.8484 -8.24833
rtoes -5.13137
lfemur -37.7658 13.8336 -25.168
ltibia 36.7753
lfoot 15.981 -9.51507
ltoes -24.8207
771
root -21.0455 18.0177 -5.79148 1056.52 -94.3641 -1040.9
lowerback 18.8311 -0.737618 3.59094
upperback 7.26688 -0.87043 -1.33063
thorax -2.77554 -0.562522 -3.26135
lowerneck 6.296 0.212541 1.75502
upperneck -17.1726 0.671503 2.49233
head -6.24752 -0.104116 0.464648
rclavicle -1.86858e-014 -1.98785e-014
rhumerus -31.2014 -3.72236 -88.6432
rradius 25.4916
rwrist 7.78383
rhand -22.7668 -8.55227
rfingers 7.12502
rthumb 3.66831 -38.5004
lclavicle -1.86858e-014 -1.98785e-014
lhumerus -33.6357 5.86986 83.1873
lradius 26.6792
lwrist 19.8493
lhand -20.2853 15.7599
lfingers 7.12502
lthumb 6.06435 45.6531
rfemur -27.7819 8.38888 19.6291
rtibia 54.4644
rfoot 8.26731 -8.26713
rtoes -5.03612
lfemur -36.8859 13.8449 -25.0041
ltibia 36.2679
lfoot 16.4611 -9.124
ltoes -24.477
772
root -21.2078 18.057 -5.78135 1057.05 -94.4672 -1041.48
lowerback 18.8813 -0.737487 3.65737
upperback 7.26312 -0.85739 -1.31176
thorax -2.80429 -0.55661 -3.28156
lowerneck 6.22608 0.250953 1.72269
upperneck -17.1524 0.710541 2.45334
head -6.22889 -0.0794254 0.454746
rclavicle -6.75868e-015 8.74653e-015
rhumerus -31.3156 -3.86585 -88.4109
rradius 25.3683
rwrist 7.92407
rhand -22.7234 -8.57696
rfingers 7.12502
rthumb 3.71022 -38.5244
lclavicle -6.75868e-015 8.74653e-015
lhumerus -33.7527 5.82773 83.2318
lradius 26.7499
lwrist 19.882
lhand -20.1929 15.7886
lfingers 7.12502
lthumb 6.15363 45.6793
rfemur -28.988 8.66374 19.452
rtibia 54.0316
rfoot 7.73648 -8.16568
rtoes -5.10823
lfemur -35.9672 13.8491 -24.8187
ltibia 35.7956
lfoot 16.8712 -8.70676
ltoes -24.117
